/* XPM */
static char *_99776d008694483a15e0d5472b4739e[] = {
/* columns rows colors chars-per-pixel */
"40 40 65 1 ",
"  c #47704C",
". c #0D0E0E",
"X c #181A1B",
"o c #0C0D0D",
"O c black",
"+ c black",
"@ c black",
"# c black",
"$ c black",
"% c black",
"& c #141517",
"* c #B7C8CC",
"= c #080809",
"- c #5D6162",
"; c #060606",
": c #95A2AF",
"> c #6C777D",
", c #97A4B0",
"< c #5C6061",
"1 c #1A1C1C",
"2 c None",
"3 c black",
"4 c black",
"5 c #BCCCDC",
"6 c #C1D1E0",
"7 c #CEDFE5",
"8 c #757979",
"9 c #DBEDF3",
"0 c #E1F5FC",
"q c #6A6E6E",
"w c #E8FCFF",
"e c #767C7D",
"r c #0D0E0F",
"t c #191B1B",
"y c #E5F9FF",
"u c #141617",
"i c #DAE9EF",
"p c #AAB9C7",
"a c #818586",
"s c #BECEDF",
"d c #A7B5C4",
"f c #82888A",
"g c #8D9597",
"h c #242623",
"j c #2A2E2D",
"k c #32352F",
"l c #DDF1F8",
"z c #C7D8E4",
"x c #79868C",
"c c #C3D3D8",
"v c black",
"b c #D2DDE1",
"n c #BACAD9",
"m c #9E6171",
"M c #808D94",
"N c #B5C5D4",
"B c #E2C5AE",
"V c #E3C7AF",
"C c #F4DAC3",
"Z c #BCCCD0",
"A c #464A41",
"S c #D4B79F",
"D c #98A5B1",
"F c #000D19",
"G c #47704C",
/* pixels */
"                                        ",
"                                        ",
"                                        ",
"                                        ",
"                                        ",
"                                        ",
"                                        ",
"                   @%%@        @%%@     ",
"                   $++$        $++$     ",
"                 @$=..=$@    @$o11o$@   ",
"                 $+.--.+$    $+X**X+%   ",
"               @$=.t88t.=%OO%oXkbbt#O   ",
"               %+.<8BB8<.####X*bCBt#O   ",
"               O#rqaVVaqhtttrhciCSu#O   ",
"               O#rqeaa8ac77c8qafa8r#O   ",
"               O#rqe8eag9ww9f8888qr#O   ",
"               %#rq88a79yyyif888eqr#%   ",
"       @%%@  @$oXheffg79i9y9gae8eqt.=$@ ",
"       $++$  %+X*7ii97gffg9y97a8e8q-.+% ",
"     @$=..=$ O#t7wyy97a8qe79y9gaqqeqr#O ",
"     $+.-2.+3%#t7wy9gaeqjkeg9y9ckjqqr#O ",
"   @$oXh2-.+;=#t7wyif8eqhhqfiyw7khe8r#O ",
"   %+X**h.;4+#vt7wyif8eqhhqf9ww7kkcct#O ",
"   O#t77t#;;Xttkz0y9gaeqjkegbiy7AAZ*X+% ",
"   O#t77tv#X*77z6z0y97a8qe7bmmiyiZkXo$@ ",
"   %+X**juuj7ww066l0y9gffg9immi07*X+$   ",
"   @$oXjDpdplyy0656z0y9ii9yyiiy7kXo$@   ",
"     $+&,p56l0y0z656l00000000l7*X+$     ",
"     @$=&jps6z0y0l65666666666pjXo$@     ",
"       $+&:pn6l00l6555555555sdu#%       ",
"       @$=&jps66665555555555sdu#O       ",
"         %#uds5555555555555np:&+%       ",
"         O#udsss55ssss55ssspj&=$@       ",
"         O#ud5pdNNdddpnnpdNdu#%         ",
"         O#udpjhMMhuujppjhMMr#O         ",
"         O#uddurxxrvvuddurxxr#O         ",
"         O#uppurxxrvvuppurxxr#O         ",
"         %+&,,&.>>&##X,,&.>>.+%         ",
"         @$=&&oo..=%%=&&oo..=$@         ",
"           %##$$##%  %##$$##%           "
};
