/* XPM */
static char *_63d448d7a8d4704803aed62550a4152[] = {
/* columns rows colors chars-per-pixel */
"40 40 65 1 ",
"  c #47704C",
". c black",
"X c #0C0D0D",
"o c #141517",
"O c black",
"+ c black",
"@ c #0D0E0E",
"# c black",
"$ c black",
"% c black",
"& c #B7C8CC",
"* c #181B1B",
"= c #181A1A",
"- c #060606",
"; c black",
": c #5C6061",
"> c #080809",
", c #97A4B0",
"< c #5F6363",
"1 c #95A2B0",
"2 c #6C777D",
"3 c black",
"4 c black",
"5 c black",
"6 c #BCCCDC",
"7 c #E6FAFF",
"8 c #C1D1E0",
"9 c #CEDFE5",
"0 c #767B7C",
"q c #E2F6FC",
"w c #AAB9C7",
"e c #DBEDF3",
"r c #757878",
"t c #0D0E0F",
"y c #DAE9EF",
"u c #141617",
"i c #818586",
"p c #BECEDF",
"a c #82888A",
"s c #6B706F",
"d c #8D9597",
"f c #31342D",
"g c #686C6D",
"h c #191B1C",
"j c #292D2F",
"k c #DDF1F8",
"l c #1B1816",
"z c #A7B5C3",
"x c #232627",
"c c #C7D8E4",
"v c #79868C",
"b c #C3D3D8",
"n c None",
"m c #27271B",
"M c #D2DDE1",
"N c #BACAD9",
"B c #9E6171",
"V c #808D94",
"C c #E2C5AE",
"Z c #B5C5D4",
"A c #E3C7AF",
"S c #F4DAC3",
"D c #464A41",
"F c #BCCCD0",
"G c #D4B79F",
/* pixels */
"                                        ",
"                                        ",
"                                        ",
"                                        ",
"                                        ",
"                                        ",
"                                        ",
"     +%%+        +%%+                   ",
"     $;;$        $;;$                   ",
"   +$X**X$+    +$-@@-$+                 ",
"   %.*&&*.$    $.@::@.$                 ",
"   O#hMMf*X%OO%-@hrrh@-$+               ",
"   O#lCSM&*####@:rCCr:@.%               ",
"   O#lGSybxthhhxsiAAigt#O               ",
"   O#triaisrb99bi0ii0gt#O               ",
"   O#tg0rr0ae77edi0r0gt#O               ",
"   %#tg000ray777e9ir0gt#%               ",
" +$-@hs000ide7eye9daa0x*X$+  +%%+       ",
" %.@:sr0ri9e7edaad9eyy9&*.%  $;;$       ",
" O#tg0sside7e90sri9e7779h#O $-@@-$+     ",
" O#tgsffbe7ed0ffs0ide779h#%$;@<<@.$     ",
" O#t00mf977yagmms0ray779h#->4@<<x*X$+   ",
" O#hbbff977eagmms0ray779hn#53>@x&&*.%   ",
" %.*&FDD97yMd0ffs0ide7qcfhh*>>#h99h#O   ",
" +$X*fFyqyBBM90sri9e7qc8c99&*#nh99h#O   ",
"   $.*&9qyBByedaade7qk88q779juuj&&*.%   ",
"   +$X*f97yyq7eyye7qc868q77kwzw,j*X$+   ",
"     $.*&9kqqqqqqqkk868cq7qk86w1o.$     ",
"     +$X*jw88888888868kq7qc8pwjo-$+     ",
"       %#uz66666666668kqqk8Nw1o.$       ",
"       O#uzp66666666668888pwjo-$+       ",
"       %.o1wN6666666666666pzu#%         ",
"       +$-ojwppp66pppp66pppzu#O         ",
"         %#uzZzwNNwzzzZZzw6zu#O         ",
"         O#tVVxjwwjuuxVVxjwzu#O         ",
"         O#tvvtuzzunntvvtuzzu#O         ",
"         O#tvvtuwwunntvvtuwwu#O         ",
"         %.@22@o,,=##o22@o,,o.%         ",
"         +$-@@XXoo-%%-@@XXoo-$+         ",
"           %##$$##%  %##$$##%           "
};
