/* XPM */
static char *_2f4ae1ba2d64fd49b75c3dd2856e62f[] = {
/* columns rows colors chars-per-pixel */
"40 40 123 2 ",
"   c #47704C",
".  c #946B4F",
"X  c #7A5B45",
"o  c #7E5E45",
"O  c None",
"+  c #A37755",
"@  c #8C6D51",
"#  c #644E40",
"$  c #2F2A27",
"%  c #76573F",
"&  c #B67F52",
"*  c #9C704E",
"=  c #A77654",
"-  c #A0714C",
";  c #845F45",
":  c #AB754E",
">  c #95775C",
",  c #C79162",
"<  c #B1784D",
"1  c #BD8251",
"2  c #9D6E4A",
"3  c #BA8C64",
"4  c #BA855C",
"5  c #B9865E",
"6  c #AB7C54",
"7  c #CA9869",
"8  c #BF8B5E",
"9  c #916745",
"0  c #BF8F64",
"q  c #C18A5B",
"w  c #B17B4B",
"e  c #92664B",
"r  c #AC774F",
"t  c #B98459",
"y  c #B47F52",
"u  c #A3724B",
"i  c #B47F53",
"p  c #C28859",
"a  c #CD9C6E",
"s  c #A87348",
"d  c #9B6E4A",
"f  c #946A44",
"g  c #986B46",
"h  c #AF7B52",
"j  c #DFC181",
"k  c #ECBF80",
"l  c #DFAA6F",
"z  c #EAC17E",
"x  c #EBC281",
"c  c #EBBF82",
"v  c #DEAB6E",
"b  c #E0A971",
"n  c #D39962",
"m  c #EDC17F",
"M  c #DFAD6F",
"N  c #D5A270",
"B  c #DEAA72",
"V  c #E7B87D",
"C  c #EBC17F",
"Z  c #DDA56C",
"A  c #E5BA81",
"S  c #DAA26C",
"D  c #E2AE73",
"F  c #EDBE81",
"G  c #E9C082",
"H  c #D69C66",
"J  c #ECC383",
"K  c #855438",
"L  c #DFAB72",
"P  c #EEC182",
"I  c #E2B77E",
"U  c #D9A56E",
"Y  c #E6B778",
"T  c #CE9B6C",
"R  c #DCB17A",
"E  c #C68A57",
"W  c #E0B47E",
"Q  c #BC8459",
"!  c #CC915E",
"~  c #7B4A34",
"^  c #6D3A24",
"/  c #C18E61",
"(  c #C79768",
")  c #D3A674",
"_  c #DEAC74",
"`  c #B57F5B",
"'  c #D39B6D",
"]  c #592614",
"[  c #DBA773",
"{  c #D19C68",
"}  c #C99D6B",
"|  c #945F42",
" . c #E9BD7D",
".. c #996847",
"X. c #C99E70",
"o. c #E5B076",
"O. c #8A5A3C",
"+. c #814A33",
"@. c #966849",
"#. c #B17B58",
"$. c #8F583C",
"%. c #E4B476",
"&. c #76452D",
"*. c #5F311C",
"=. c #C0936A",
"-. c #B97E4C",
";. c #EAC085",
":. c #9F6B4B",
">. c #B2865F",
",. c #CFA470",
"<. c #BF8D67",
"1. c #D4A977",
"2. c #AC704C",
"3. c #DEAE77",
"4. c #D8A169",
"5. c #B98B62",
"6. c #64311D",
"7. c #A47755",
"8. c #DE497F",
"9. c #949B00",
"0. c #E2000E",
"q. c #00130B",
"w. c #47704C",
/* pixels */
"                                                                                ",
"                                                                                ",
"                                                                                ",
"                                                                                ",
"                                                                                ",
"                                                                                ",
"                                                                                ",
"                                                                                ",
"                                  X @ @ % % X #                                 ",
"                              . = t , , 8 & & r * #                             ",
"                          > 3 7 ' S U ` Q S H n , 5 .                           ",
"                        + a U l b L B K | _ B l Z { 0 +                         ",
"                      @ 7 { ( [ b B v N _ Y V Y N T H q +                       ",
"                    > 0 4.$.] #.D l D F m k C c O.~ [ n i ;                     ",
"                  $ = ' B ..$.T M v N ) R C z k } } A l ! u o                   ",
"                  ; 8 S v B L L l [ ~ ] ^ ) C k P P C Y 4.Q e                   ",
"                  - O l l l l l l B / K @.W C k F c C R O.2.r #                 ",
"                $ : n v B l l b l M  .c c ;.A G c C z R :.p i o                 ",
"                # 4 S D v v v N U %.k z m ) ~ X.x z z z c l & %                 ",
"                # 4 O ` ' M N &.K V k k k R @.,.x G A  .z o.& %                 ",
"                $ 5 +.^ T M N +.K V k k k F c z x >.&.X.x D t X                 ",
"                  6 #./ M v l _ I k k k P P k z z X.7.W k b y >                 ",
"                  * O _ B B l Y z k c A ( ( W C z x J ;.F n : $                 ",
"                  . q Z l l M Y G G J =.*.*.>.J z x G c o.p 2                   ",
"                    3 O l { / W G G x W } 1.I x A 5...T H h o                   ",
"                  $ o y H ..] <.m G C x C C z z A O.6.Q 1 2                     ",
"                      9 w Q ` N %. .V I G z z k V U ! -.g #                     ",
"                      $ f w n Z v 3.| ^ =.k V o.Z n -.u X                       ",
"                        # e s E n U :.| ' b Z n E < = .                         ",
"                            @ d < 1 E ! ! E 1 < : +                             ",
"                              # ; * - 6 - 2 9 % #                               ",
"                                                                                ",
"                                                                                ",
"                                                                                ",
"                                                                                ",
"                                                                                ",
"                                                                                ",
"                                                                                ",
"                                                                                ",
"                                                                                "
};
