/* XPM */
static char *_e523a6a287f4e468c84333838298a4a[] = {
/* columns rows colors chars-per-pixel */
"43 40 160 2 ",
"   c #47704C",
".  c #2B354E",
"X  c #2B344B",
"o  c #293249",
"O  c #252E45",
"+  c #283148",
"@  c #222B42",
"#  c #2B344C",
"$  c #293249",
"%  c #29324A",
"&  c #283149",
"*  c None",
"=  c #2D3650",
"-  c #273047",
";  c #2D3650",
":  c #2A334C",
">  c #2E3851",
",  c #303954",
"<  c #3B4469",
"1  c #303954",
"2  c #38415C",
"3  c #2B344D",
"4  c #29324A",
"5  c #273048",
"6  c #2E374F",
"7  c #80859E",
"8  c #2C354C",
"9  c #48506D",
"0  c #343D5E",
"q  c #293248",
"w  c #333C5C",
"e  c #333C58",
"r  c #474E67",
"t  c #3C455F",
"y  c #2C354D",
"u  c #414A66",
"i  c #3F475F",
"p  c #2B344C",
"a  c #2B344D",
"s  c #2B344D",
"d  c #2B344D",
"f  c #3B445F",
"g  c #39425A",
"h  c #353E59",
"j  c #525972",
"k  c #60667F",
"l  c #283149",
"z  c #646B85",
"x  c #51597C",
"c  c #303956",
"v  c #6C728C",
"b  c #424A65",
"n  c #252E45",
"m  c #757B94",
"M  c #565E76",
"N  c #303952",
"B  c #555C75",
"V  c #2F3855",
"C  c #596079",
"Z  c #39425A",
"A  c #2A334B",
"S  c #AFB2CD",
"D  c #2E3751",
"F  c #5C637B",
"G  c #1B1F21",
"H  c #191D1E",
"J  c #676E99",
"K  c #171B1B",
"L  c #646C96",
"P  c #2B334B",
"I  c #343D5C",
"U  c #6F759E",
"Y  c #878CAF",
"T  c #5D648E",
"R  c #2E3751",
"E  c #323B57",
"W  c #454E76",
"Q  c #60678F",
"!  c #23272E",
"~  c #7E84A9",
"^  c #4A537C",
"/  c #1D2124",
"(  c #47507A",
")  c #565D84",
"_  c #202429",
"`  c #6A719B",
"'  c #4C5580",
"]  c #424B74",
"[  c #596189",
"{  c #363F5F",
"}  c #3E476F",
"|  c #5A628D",
" . c #6C739D",
".. c #515983",
"X. c #8E93B5",
"o. c #1B1F22",
"O. c #242935",
"+. c #555E89",
"@. c #7178A0",
"#. c #9DA1BF",
"$. c #626992",
"%. c #434B6E",
"&. c #8489AB",
"*. c #4A5171",
"=. c #A9ADC8",
"-. c #5C6382",
";. c #676D87",
":. c #3C4466",
">. c #7A80A6",
",. c #3D466B",
"<. c #292D31",
"1. c #575E7E",
"2. c #42464F",
"3. c #2B2F35",
"4. c #A0A4C0",
"5. c #9A9FBC",
"6. c #959AB4",
"7. c #9296B1",
"8. c #292E3D",
"9. c #636776",
"0. c #7A80A2",
"q. c #8B90AE",
"w. c #676D8F",
"e. c #1A1E20",
"r. c #2D3345",
"t. c #3F4870",
"y. c #A4A8C4",
"u. c #747A98",
"i. c #3A435C",
"p. c #273048",
"a. c #2E333A",
"s. c #989CB6",
"d. c #8D92B2",
"f. c #41475F",
"g. c #5A5E6D",
"h. c #898EA6",
"j. c #757CA2",
"k. c #4B5376",
"l. c #9297B8",
"z. c #474E68",
"x. c #7A7F99",
"c. c #444A62",
"v. c #5E6272",
"b. c #616888",
"n. c #6D7395",
"m. c #51587A",
"M. c #31353E",
"N. c #6D738B",
"B. c #3A415A",
"V. c #3F4457",
"C. c #8489A3",
"Z. c #6F7691",
"A. c #353A4A",
"S. c #3B4050",
"D. c #353B50",
"F. c #767A8D",
"G. c #525762",
"H. c #969BBA",
"J. c #464A58",
"K. c #47704C",
/* pixels */
"                  % d l p.p.. 6 O         @ y . p.p.l 3 n A : p p.p.p.p.l s 5         ",
"            O @ o 6 t 2 i.B.Z g A @ O O @ a g Z i.i.2 h N 5 i f i.B.B.i.2 t 6 # @ O   ",
"            O % 8 i C z ;.;.k r & 5 - + 5 $ r k ;.;.z B i > B z ;.;.;.;.z C i 4 % @   ",
"            o 4 . 9 m 7.5.6.7 M , : a n : , M 7 s.5.7.v u u v q.s.6.6.s.7.m 9 . 4 #   ",
"        - n 6 h f 1.C.y.S =.7.N.j r 8 g r j Z.6.y.y.l.x.-.-.7 4.=.=.=.=.y.C.1.f h y 5 ",
"        n $ 1 u x n.q.y.=.=.4.7.7 k t t k 7 7.4.4.X.~ 0.7 h.s.y.=.=.=.=.y.d.n.x u 1 s ",
"  O @ # 6 s 2 *.Q j.d.5.#.#.#.4.6.N.b b Z.6.4.#.l.>.U j.q.H.5.5.#.#.#.#.5.d.j.Q *.E P ",
"  - % 4 h u k.) L @.~ &.Y Y Y X.Y w.%.%.w.&.d.Y ~ @.` ` @.0.&.Y Y Y Y Y Y ~ j.$.*.E P ",
"  o 8 . f x Q L J `  .U U U U @.` [ W W [  .@.U U ` J T ....T ` U U U U U U ` Q *.E P ",
"  # $ p i.^ Q L J J J J J J $.) m.*.] ^ [ L ` J J L T ^ :.I :.*.1.Q L $.T T T ) %.E P ",
"  # $ p I %...| L J J J ` J -.c.A.E ,.^ | J ` ` L | ' :.r.O.O.r.f.-.L | ' ^ ' ( :.R P ",
"  o 8 . c * ] ) J  .` L J L m.A.! O.I W ) $.L Q ) ^ ,.R ! / _ 3.V.1.T ..W t.t.< 0 = X ",
"  - % 8 3 ; * -.0.~ J +.+.+.*.r./ _ 8.E W ..m.z.V.D.r.O./ ! 2.g.-.) ' ( } * { 0 1 > $ ",
"  O @ # y 1 2 b.q.Y $.( ] W :.8./ e./ 8.I t.{ 8.! _ _ o.e.a.v.C.0.[ W ] ] :.I = > % + ",
"  @ o % g r M u.q.~ 1.{ E I P O.o.H H _ r.R r._ H H e.K H 3.G.F.u.w.T T [ k.B.X & +   ",
"  + q 3 r v 7 &.~ w.f.8.O.O.O._ o.e.e./ ! O.! / H H e.H e._ a.2.v.x.Y d.&.w.c.X & +   ",
"  # $ ; z.u.d.&.w.*.r./ H G o.G G G G G o.o.o.G G G G G G e.K _ J.x.5.y.5.x.*.e > % + ",
"  # : p f.b.n.-.c.r._ K K H e.G G G G G e.H e.G G G G G G H K G S.Z.d.l.Y j.-.9 t > $ ",
"  # & ; I %.W i.8.! _ / G G G G G G G G G G G G G G G G G e.K / A.1.U @.U ` L [ 9 e X ",
"  + q 3 . w { B.2.2.2.2.M._ e.e.G G G G G G G G G G G G G e.K e.8.f.k.) [ $.J $.*.E P ",
"  @ o % & . I j N.x.7 F.G.3.H H G G G G G G G G G G G G G e.H H / O.r.i.W +.L $.*.E P ",
"  O @ # y 1 b ;.q.4.4.7.9.a.H H G G G G G G G G G G G G G / ! <.3.3.M.i.k.+.T [ 9 e X ",
"  - % 8 i F N.x.Y X.l.&.v.a.H H G G G G G G G G G G G H e.<.2.v.9.v.9.;.n.w.1.9 t > $ ",
"  o 4 . 9 m d.Y j.U @.w.z.3.H H G G G G G G G G G G G H H a.v.h.6.7.7.s.6.u.*.e > % + ",
"  # $ = z.u.X.Y U Q ) *.D.! K K H H G G G G G G G H H K K <.G.F.h.7.H.5.l.Z.z.X & +   ",
"  # $ = c.b.>.>.` -.f.M.! o.K K K H e.G G G G G e.H K K K / 3.2.g.n.>.~ 0.b.f.X & +   ",
"  # $ X i.m.$.J L m.D.! ! <.3.3.<.! / G G G e.G / ! <.3.3.<.! 3.V.-.U @.J ) :.= > % + ",
"  # $ = I W ..+...W E P V.g.9.9.g.2.<.H H G H K ! 2.g.9.9.g.c.f.j u.&.>.J ) %.0 1 > $ ",
"  # & ; E ,.W ( W ] ,.%.b.C.6.s.h.9.M.e.H G H e.M.9.h.s.6.h.u.w.u.q.l.&. .[ ( < 0 = X ",
"  + q 3 . w < k.) T T $.j.d.5.#.d.;.S.! o.o._ 8.J.N.X.#.5.X.~ U j.~ &.0.` T ' } I R P ",
"  @ o % & . 2 1.0.q.q.Y &.~ ~ ~ j.b.%.P ! _ a.c.1.n.>.~ ~ >.@.` L Q Q L J T ' } I R P ",
"  O @ # y 1 2 -.q.#.4.H.Y @.J ` L | ( { 8.O.S.1.J ` ` J L L J J | ^ ( ) Q [ ( < 0 = X ",
"  - % 4 d ; < -.~ X.X.Y >. .J J J | ^ ,.E D.z.Q  . .J Q +.+.$.L | ( ] ^ ..^ ,.2 1 > $ ",
"  o 8 . c * ] ) J @.@.U ` J J J L +.( } ,.,.^ Q J ` L [ ' ^ [ $.| ^ ] ] ] ,.I ; : % + ",
"  + 6 d , 0 ,.^ +.T T | T T | [ ) k.,.* * ,.( +.T Q | ..W W ..[ ..%.:.* * 0 , 3 q -   ",
"  @ # N : , I ,.( ' ' ^ ' ' ( %.:.{ E E E I :.W ' ' ' ( ] ] ( ^ ] { E E E , $ 5 o O   ",
"      O 5 3 ; 2 < t.t.} t.} < w = X X X X = w < } t.} } } } } } < w = p ; 3 5 O       ",
"        o q : 1 w I I I { I e V : & $ $ & : V e I I I { { { { { , 3 $ $ & q #         ",
"        O - % : ; R R R R R , 4 a + # # + n & , R R R R R R R D s 6 # o # + @         ",
"            - 4 ; P P P P P . 6           O y . P P P P P P P l d %                   "
};
