/* XPM */
static char *dac156aba9604d2e96469e87cd57045d[] = {
/* columns rows colors chars-per-pixel */
"40 40 5 1 ",
"  c #63AB3F",
". c #5FA740",
"X c #4E9447",
"o c #59A043",
"O c #41854C",
/* pixels */
"                               oOOXo    ",
"     ...                      .oXOXo    ",
"    .ooo.                      oXXo.    ",
"    .XOXo                      ..o.     ",
"    oXOOo         ....                  ",
"    oXOOo        .oXXo.                 ",
"    oXOOo        .XOOX.                 ",
"    .XXXo        .XOOX.                 ",
"    .ooo.         XOOX.                 ",
"                 .XOOX.                 ",
"                  oXXo.                 ",
"                  ....                  ",
"                                     .oo",
"                                    .oXX",
"                                    oXOO",
"                                    oXOO",
"                                    oXOO",
"             ...                    oXOO",
"            .oXo.                   .oXX",
"            .XOXo                    .oo",
"            oXOOo         ....          ",
"            oXOOo        .oXXo.         ",
"            oXOOo        .XOOX.         ",
"            .XXXo        .XOOX.         ",
"            .ooo.         XOOX.         ",
"                         .XOOX.         ",
"                          oXXo.         ",
"                          ....          ",
"  ....                                  ",
" .oXXo.                                 ",
" .XOOX.                                 ",
" .XOOX.                                 ",
" .XOOX.                                 ",
" .XOOX.                                 ",
"  oXXo.                                 ",
"  ....                                  ",
"               ..o.                     ",
"               oXXo.                    ",
"               oXOXo                    ",
"              .oOOXo                    "
};
