/* XPM */
static char *dd0b3a0bb9d842d9865fbdaf15cccd84[] = {
/* columns rows colors chars-per-pixel */
"40 40 119 2 ",
"   c #39794F",
".  c #36794B",
"X  c #62837B",
"o  c #DDEBD6",
"O  c #35714E",
"+  c #FFF6A1",
"@  c #326252",
"#  c #3B7D4F",
"$  c #3B7E4F",
"%  c #3A7C4F",
"&  c ivory",
"*  c #FFFFFA",
"=  c #337749",
"-  c #FFFFD1",
";  c #346C4F",
":  c #2B5A4D",
">  c #4F8B60",
",  c #2D644B",
"<  c #528D63",
"1  c #6A9D77",
"2  c #397C4D",
"3  c #FEF091",
"4  c #F3FEE6",
"5  c #466B64",
"6  c #92AB9F",
"7  c #416661",
"8  c #496E66",
"9  c #FFFFBC",
"0  c #2F6C49",
"q  c #3C7D51",
"w  c #FFF18B",
"e  c #FFFFE3",
"r  c #E9EFC3",
"t  c #F6F0A5",
"y  c #FFED7F",
"u  c #386E53",
"i  c #95BC9A",
"p  c #789687",
"a  c #89A497",
"s  c #BED9BC",
"d  c #30664E",
"f  c #49865B",
"g  c #8EA89D",
"h  c #8EB596",
"j  c #E2F0DD",
"k  c #FFEC76",
"l  c #F6FFEC",
"z  c #68877E",
"x  c #AFCCAF",
"c  c #99C09D",
"v  c #70A27B",
"b  c #335E55",
"n  c #61956F",
"m  c #43715F",
"M  c #BBCDBE",
"N  c #74A57D",
"B  c #FBFFEF",
"V  c #387450",
"C  c #3E7755",
"Z  c #4C7B64",
"A  c #366853",
"S  c #307248",
"D  c #DFF0D7",
"F  c #9DB5A5",
"G  c #EAF7DE",
"H  c #FFFFF5",
"J  c #DEEFD4",
"K  c #B0C1A5",
"L  c #C2D2B9",
"P  c #F2FAD9",
"I  c #B7CBBC",
"U  c #418154",
"Y  c #FFFBB9",
"T  c #A1C5A0",
"R  c #E2EECE",
"E  c #CBDFC6",
"W  c #447C5A",
"Q  c #F8F6B6",
"!  c #3D7F51",
"~  c #7FAD85",
"^  c #C2DCC0",
"/  c #567C6F",
"(  c #E1E9B1",
")  c #ABC2AF",
"_  c #5B8372",
"`  c #BCCFBD",
"'  c #C0D2C3",
"]  c #FCFECE",
"[  c #E0E4B1",
"{  c #90A898",
"}  c #EDECAB",
"|  c #FFEE85",
" . c #C7E0C2",
".. c #FFED7D",
"X. c #D4E4B6",
"o. c #FBF3A1",
"O. c #F7F9CA",
"+. c #234C4B",
"@. c #729A81",
"#. c #BCD0A7",
"$. c #EEEFB4",
"%. c #CEDBB2",
"&. c #C6DCB8",
"*. c #4D8361",
"=. c #E6F4DC",
"-. c #6A907D",
";. c #7C9A90",
":. c #41755B",
">. c #78A484",
",. c #54806C",
"<. c #F4FCDB",
"1. c #9ABE94",
"2. c #D2DCB8",
"3. c #B4CEA3",
"4. c #F4FBDB",
"5. c #386358",
"6. c #87B28D",
"7. c #39797B",
"8. c #3683D6",
/* pixels */
"= = S . 1 s l * l s 1 . S = . 2 $ $ # # # % . = = = = . % # # # $ $ $ # # # # # ",
"> > f < ~ &.<.e <.&.~ < > > f U     % % % ! f > < < > f ! % % %       % # # # # ",
"i i i i 3.[ Q Y Q [ 3.i i i >.*.; 0 = = = U 1 h c c h 1 U = = . O ; u   # $ $ $ ",
"D D D J r t 3 w 3 t r D =.J ) X @ d   $ 2 > h E =.=.E h > 2 $ q u @ @ V % $ # % ",
"& & H & - + y k y + - & * B ' -.u Z 1 v v ~ 3.r - - r 3.~ v v 1 ,.A d V %   V O ",
"& & H & - + y k y + - & * B ^ 1 *.N x ^ ^ &.( t + + t ( &.^ ^ x >.W O     u @ @ ",
"o o o o r t 3 w 3 t r o j o x n < h J l l <.Q 3 y y 3 Q <.l l J i > . 2   ; @ b ",
"6 6 g 6 K [ Y 9 Y [ K { a a @.*.< c G * * e Y w k k w Y e * * G T < . 2 % V ; A ",
"5 5 7 8 p L P e P L p 8 7 8 m V > i J l l 4.Q 3 y y 3 Q 4.l l J i > . . %       ",
": : : @ / 6 I ' I F ;.X X X ,.W f >.) M M L [ t + + t [ L M M ) >.f = O V   # $ ",
"O O O O :./ X X X ;.F I ' I h n q W _ X X p K r - - r K p X X _ *.  O d @ u   $ ",
"    % % C m 8 7 8 p L P e P &.~ < Z 8 7 b 8 a E =.=.E a 5 b 7 8 Z > W A @ ;   $ ",
"A ; O q < @.a a { K [ Y 9 Y ( 3.i h a -.m u _ a 6 6 ;.,.A m -.g F i >.Z d 0 = . ",
"b @ d q 1 x o j o r t 3 w 3 t r D j o x 1 C u 5 5 8 8 u C 1 x o G J x 1 q . ! ! ",
"@ @ 0 q N  .B * & - + y k y + - & * B  .N q , , 5./ X -.v 1.X.] - ] X.1.N 1 v v ",
"O V S q N  .B * & - + y k y + - & * B  .N ! 0 O _ h I s s X.} + + + } X.s s s s ",
"% % . ! 1 x o j o r t 3 w 3 t r o j o x 1 ! S ! v s 4 B 4 O.o.| ..| o.O.4 l 4 4 ",
"$ $ 2 $ < @.a a { K [ Y 9 Y [ K 6 6 g p < q = ! N  .& * & - + ..k ..+ - & H H & ",
"# # $ # C m 8 7 8 p L P e P L p 8 7 5 m C % = ! v s 4 B 4 O.o.| ..| o.O.4 4 4 4 ",
". . . 2 W ,.X X X ;.F I ' I 6 / : : : d V # 2 ! n i I ' ` %.} + + + } %.` M M ` ",
". . = . n h I ' I F ;.X X X / :.O ; O O   $ $ q W _ z X z { 2.] - ] 2.{ z X z z ",
"> > f < ~ &.P e P L p 8 7 8 m C % # % %     % % V A b : b z ) o G o ) z b : b b ",
"c c i c 3.( Y 9 Y [ K { a a @.< ! 2 $   u ; V     ; , , d Z p 6 F 6 p Z d , , , ",
"D D D D r t 3 w 3 t r o j o x 1 ! . % V @ @ ;   %       V C m 5 5 5 m C         ",
"& & H & - + y k y + - & * B  .N ! . # V A @ u   % V V   % V , : : : , V $ $ $ $ ",
"& & H & - + y k y + - & * B  .N ! . #   V V   % V A @ u     S 0 0 0 S . $ $ $ $ ",
"o o o o r t 3 w 3 t r o j o x 1 ! =     % # $ # V @ @ ;   U f > < > f U %       ",
"6 6 g 6 K [ Y 9 Y [ K 6 g a @.*.. 0 ; u   $ $ # V ; d 0 . < ~ c T c ~ < . 0 , , ",
"5 5 7 8 p L P e P L p 8 7 5 m W q ; @ @ V # $ # % q q . U 1 x J G J x 1 q ; @ b ",
": : : @ / 6 M ' I g Z @ 7 _ -.@.1 *.A d O . 2 # f n v v N 1.X.] - ] X.1.v -.z z ",
"O O 0 O :._ z z X Z u C @.) ' ^ x >.W 0 S . = $ n c s ^ s X.} + + + } X.s ` ` M ",
"# % %   u A 5.7 5 m *.n T R e e R T n > > > U U v s 4 B 4 O.o.| ..| o.O.4 l 4 4 ",
"$ % V ; d , u _ ;.6 i T %.Q 9 9 Q %.T c c h n f N  .& * & - + ..k ..+ - & H H & ",
"$   ; @ @ 0 *.h E j j R $.3 w w 3 $.R j =.E 6.> 1 s 4 B 4 O.o.| ..| o.O.4 4 4 4 ",
"$   u @ d O < T G H H e Y w k k w Y e H H =.c < n h I ' ` %.} + + + } %.` M M ` ",
"# %   V O = < T G H H e Y w k k w Y e H H G c < W ,.z X z { 2.] - ] 2.{ z X z z ",
"# # # # . . > h E j j R $.3 w w 3 $.R j j E h > O d b : b X ) o G o ) X b : b b ",
"# # $ $ 2 2 U n a g g F #.$.Y Y $.#.F g g a n U = 0 , , d Z p g 6 g p Z d , , , ",
"# # # # # $ q :.5 7 7 / F R e e R F / 7 7 5 :.q %         C m 5 5 5 m C         ",
"# # # # $ $   d : +.+.7 g o H H o g 7 +.+.: d   $ $ $ $ $ O : +.+.+.: O $ $ $ $ "
};
